<mxfile host="65bd71144e">
    <diagram id="R65bfkqB5BfwI4jI_dHJ" name="Страница 1">
        <mxGraphModel dx="1094" dy="713" grid="1" gridSize="10" guides="1" tooltips="1" connect="1" arrows="1" fold="1" page="1" pageScale="1" pageWidth="827" pageHeight="1169" math="0" shadow="0">
            <root>
                <mxCell id="0"/>
                <mxCell id="1" parent="0"/>
                <mxCell id="6" style="edgeStyle=none;html=1;exitX=0.5;exitY=1;exitDx=0;exitDy=0;entryX=0.5;entryY=0;entryDx=0;entryDy=0;fontFamily=Helvetica;fontSize=12;" edge="1" parent="1" source="2" target="12">
                    <mxGeometry relative="1" as="geometry">
                        <mxPoint x="420" y="200" as="targetPoint"/>
                    </mxGeometry>
                </mxCell>
                <mxCell id="2" value="Начало" style="ellipse;whiteSpace=wrap;html=1;" vertex="1" parent="1">
                    <mxGeometry x="360" y="130" width="120" height="40" as="geometry"/>
                </mxCell>
                <mxCell id="4" value="&lt;div style=&quot;text-align: justify&quot;&gt;Задача:&amp;nbsp;&lt;/div&gt;&lt;div style=&quot;text-align: justify&quot;&gt;Написать программу, которая из имеющегося массива строк формирует массив из строк длина которых меньше либо равна 3 символам.&amp;nbsp;&amp;nbsp;&lt;/div&gt;&lt;div style=&quot;text-align: justify&quot;&gt;Первоначальный массив можно ввести с клаваитуры, либо задать на старе выполнения алгоритма.&amp;nbsp;&lt;/div&gt;&lt;div style=&quot;text-align: justify&quot;&gt;При решение не рекомендуется пользоваться коллекциями, лучше обойтись исключительнвми массивами.&lt;span&gt;Задача:&amp;nbsp;&lt;/span&gt;&lt;/div&gt;&lt;div style=&quot;text-align: justify&quot;&gt;&lt;br&gt;&lt;/div&gt;" style="rounded=0;whiteSpace=wrap;html=1;fontFamily=Helvetica;fontSize=12;" vertex="1" parent="1">
                    <mxGeometry x="20" y="20" width="800" height="80" as="geometry"/>
                </mxCell>
                <mxCell id="9" value="" style="edgeStyle=none;html=1;fontFamily=Helvetica;fontSize=12;" edge="1" parent="1" source="7" target="8">
                    <mxGeometry relative="1" as="geometry"/>
                </mxCell>
                <mxCell id="11" value="" style="edgeStyle=none;html=1;fontFamily=Helvetica;fontSize=12;" edge="1" parent="1" source="7" target="10">
                    <mxGeometry relative="1" as="geometry"/>
                </mxCell>
                <mxCell id="7" value="i &amp;lt; myarray.Lenght" style="rhombus;whiteSpace=wrap;html=1;fontFamily=Helvetica;fontSize=12;" vertex="1" parent="1">
                    <mxGeometry x="300" y="320" width="240" height="80" as="geometry"/>
                </mxCell>
                <mxCell id="8" value="" style="whiteSpace=wrap;html=1;" vertex="1" parent="1">
                    <mxGeometry x="680" y="330" width="120" height="60" as="geometry"/>
                </mxCell>
                <mxCell id="10" value="&lt;span&gt;j &amp;lt; ar.Lenght&lt;/span&gt;" style="rhombus;whiteSpace=wrap;html=1;" vertex="1" parent="1">
                    <mxGeometry x="310" y="480" width="220" height="80" as="geometry"/>
                </mxCell>
                <mxCell id="13" style="edgeStyle=none;html=1;exitX=0.5;exitY=1;exitDx=0;exitDy=0;entryX=0.5;entryY=0;entryDx=0;entryDy=0;fontFamily=Helvetica;fontSize=12;" edge="1" parent="1" source="12" target="7">
                    <mxGeometry relative="1" as="geometry"/>
                </mxCell>
                <mxCell id="12" value="&lt;span&gt;[] myarray()&lt;/span&gt;&lt;br&gt;&lt;span&gt;[] ar [myarray.Lenght]&lt;/span&gt;&lt;br&gt;&lt;span&gt;i = 0&lt;/span&gt;&lt;br&gt;&lt;span&gt;j = 0&amp;nbsp;&lt;br&gt;&lt;/span&gt;" style="shape=parallelogram;perimeter=parallelogramPerimeter;whiteSpace=wrap;html=1;fixedSize=1;fontFamily=Helvetica;fontSize=12;" vertex="1" parent="1">
                    <mxGeometry x="290" y="200" width="260" height="70" as="geometry"/>
                </mxCell>
            </root>
        </mxGraphModel>
    </diagram>
</mxfile>